<svg width="14" height="17" viewBox="0 0 14 17" fill="none" xmlns="http://www.w3.org/2000/svg">
<path d="M10.023 16.154C8.87538 14.9286 8.06082 13.4296 7.65699 11.8C7.44693 10.0582 7.68441 8.29154 8.34699 6.66701C8.99349 6.44834 9.61471 6.16104 10.2 5.81001C10.7481 5.34799 11.2504 4.83429 11.7 4.27601H11.706C12.1562 4.67959 12.542 5.1497 12.85 5.67001C13.6236 6.96686 14.0217 8.45311 14 9.96301C13.9339 11.6746 13.2235 13.2981 12.011 14.508C11.4227 15.1408 10.7544 15.6941 10.023 16.154ZM3.97599 16.154C3.2449 15.6941 2.57693 15.1407 1.98899 14.508C0.776604 13.298 0.0661658 11.6746 -1.04133e-05 9.96301C-0.0217382 8.45311 0.376396 6.96686 1.14999 5.67001C1.4574 5.14759 1.84553 4.67711 2.29999 4.27601C2.74989 4.83404 3.25218 5.34772 3.79999 5.81001C4.38712 6.16166 5.00995 6.44995 5.65799 6.67001C6.31798 8.29416 6.55338 10.0597 6.34199 11.8C5.93764 13.4285 5.12312 14.9264 3.97599 16.151V16.154ZM7.15099 5.70001C6.40563 5.62811 5.6828 5.40477 5.02679 5.04367C4.37079 4.68257 3.79544 4.19131 3.33599 3.60001C3.33599 3.60001 3.33599 3.60001 3.34499 3.59301C3.78535 3.33001 4.24897 3.10808 4.72999 2.93001L3.40699 1.35201C3.27916 1.19951 3.21714 1.00247 3.23458 0.804247C3.25202 0.606021 3.34749 0.422842 3.49999 0.295008C3.65249 0.167173 3.84952 0.105155 4.04775 0.122596C4.24598 0.140037 4.42916 0.235508 4.55699 0.388008L6.24899 2.40001C6.28149 2.43962 6.31028 2.48213 6.33499 2.52701C6.53696 2.5062 6.73997 2.49719 6.94299 2.50001C7.22897 2.50115 7.51457 2.52085 7.79799 2.55901C7.81214 2.53244 7.82783 2.50673 7.84499 2.48201L9.35499 0.321008C9.4115 0.240279 9.48336 0.171478 9.56647 0.118536C9.64958 0.065594 9.74231 0.0295491 9.83936 0.0124612C9.93641 -0.00462665 10.0359 -0.00242243 10.1321 0.0189479C10.2283 0.0403182 10.3193 0.0804358 10.4 0.137008C10.4807 0.193424 10.5495 0.265198 10.6024 0.348222C10.6553 0.431246 10.6914 0.523891 10.7085 0.620857C10.7255 0.717823 10.7233 0.817207 10.702 0.913324C10.6806 1.00944 10.6405 1.1004 10.584 1.18101L9.36799 2.91701C9.82255 3.0603 10.2663 3.23574 10.696 3.44201C10.553 3.67701 9.25799 5.70001 7.15099 5.70001Z" fill="#F1F1F1"/>
</svg>
