<svg width="14" height="14" viewBox="0 0 14 14" fill="none" xmlns="http://www.w3.org/2000/svg">
<path d="M7 14C5.61553 14 4.26216 13.5895 3.11101 12.8203C1.95987 12.0511 1.06266 10.9579 0.532846 9.67879C0.00303304 8.3997 -0.13559 6.99224 0.134506 5.63437C0.404603 4.2765 1.07129 3.02922 2.05026 2.05026C3.02922 1.07129 4.2765 0.404603 5.63437 0.134506C6.99224 -0.13559 8.3997 0.00303304 9.67879 0.532846C10.9579 1.06266 12.0511 1.95987 12.8203 3.11101C13.5895 4.26216 14 5.61553 14 7C13.9979 8.85587 13.2597 10.6351 11.9474 11.9474C10.6351 13.2597 8.85587 13.9979 7 14ZM7.1 1.75C6.90392 1.74983 6.70797 1.76018 6.513 1.781C7.29068 2.40679 7.91429 3.20279 8.33577 4.10764C8.75725 5.01249 8.96534 6.00203 8.944 7C8.96561 8.04512 8.73483 9.08002 8.27124 10.0169C7.80766 10.9539 7.12494 11.7652 6.281 12.382C7.00959 12.4957 7.75383 12.4576 8.46697 12.2699C9.1801 12.0822 9.84672 11.7491 10.4249 11.2914C11.0032 10.8338 11.4805 10.2615 11.8269 9.61053C12.1734 8.95957 12.3814 8.24399 12.4381 7.50875C12.4947 6.77351 12.3987 6.0345 12.156 5.33816C11.9134 4.64181 11.5293 4.00317 11.028 3.46236C10.5267 2.92155 9.91899 2.49026 9.24301 2.19558C8.56703 1.90089 7.83742 1.74919 7.1 1.75Z" fill="#F1F1F1"/>
</svg>
