<svg width="14" height="16" viewBox="0 0 14 16" fill="none" xmlns="http://www.w3.org/2000/svg">
<path d="M7.46401 16C6.05123 16.0059 4.67415 15.5564 3.53701 14.718C2.43653 13.9093 1.62135 12.7719 1.20901 11.47C1.18828 11.3845 1.17193 11.2981 1.16001 11.211C1.08601 10.671 1.09101 10.363 1.17301 10.27C1.18098 10.2599 1.19116 10.2517 1.20278 10.2462C1.2144 10.2406 1.22713 10.2378 1.24001 10.238C1.25539 10.2386 1.27058 10.2416 1.28501 10.247C1.40883 10.4044 1.50148 10.5839 1.55801 10.776C1.68174 11.0832 1.8216 11.3836 1.97701 11.676C2.15164 12.0227 2.4026 12.3253 2.71101 12.561C2.71901 12.561 2.72101 12.556 2.72201 12.552C2.67863 12.4238 2.61296 12.3043 2.52801 12.199C2.44701 12.075 2.35301 11.93 2.27301 11.787C2.11001 11.496 2.04001 11.275 2.08001 11.18C2.08509 11.1671 2.0932 11.1557 2.10365 11.1467C2.11409 11.1376 2.12656 11.1312 2.14001 11.128H2.16201C2.29101 11.128 2.50601 11.395 2.75501 11.704L2.76601 11.717C2.89301 11.875 3.02401 12.038 3.16601 12.192C3.3917 12.469 3.67581 12.6926 3.99801 12.847C4.00194 12.8481 4.00608 12.8481 4.01001 12.847C4.01312 12.8456 4.01589 12.8435 4.01813 12.8409C4.02037 12.8383 4.02204 12.8353 4.02301 12.832C4.03601 12.783 3.94701 12.651 3.83501 12.485C3.76801 12.385 3.70401 12.285 3.64901 12.194L3.64101 12.18C3.50001 11.94 3.38801 11.751 3.50401 11.68C3.52249 11.6692 3.54359 11.6636 3.56501 11.664C3.70101 11.664 3.91701 11.85 4.13101 12.051L4.21801 12.134L4.22901 12.145C4.39501 12.303 4.53901 12.439 4.60401 12.439C4.61194 12.4394 4.61976 12.4369 4.62601 12.432C4.67501 12.391 4.64201 12.287 4.61001 12.187C4.57801 12.087 4.53901 11.962 4.58201 11.893C4.59484 11.8754 4.6115 11.861 4.63073 11.8507C4.64996 11.8405 4.67125 11.8348 4.69301 11.834H4.70001C4.80765 11.857 4.90964 11.9012 5.00001 11.964L5.01001 11.969C5.11001 12.026 5.23401 12.092 5.38001 12.162C5.85258 12.5123 6.42578 12.7003 7.01401 12.698C7.72238 12.7039 8.40422 12.4288 8.91026 11.9331C9.4163 11.4374 9.7053 10.7613 9.71401 10.053C9.71288 9.52634 9.55432 9.01205 9.2587 8.57619C8.96308 8.14034 8.5439 7.80282 8.05501 7.60699C7.99787 7.74899 7.90315 7.87275 7.78101 7.96499C7.64173 8.06761 7.47722 8.13051 7.30501 8.14699C7.22701 8.15999 7.13001 8.17599 6.98901 8.20399C6.47701 8.30799 0.717007 9.62899 0.659007 9.64299C0.651007 9.64299 0.610007 9.64299 0.552007 9.64299C0.373346 9.65474 0.196273 9.60304 0.0520075 9.49699C-0.124993 9.31699 0.373007 8.41999 0.378007 8.41099C0.980158 7.29312 1.64799 6.21189 2.37801 5.17299C2.43601 5.11599 2.62301 4.97999 2.90501 4.77299C3.52101 4.32299 4.55201 3.57299 5.61101 2.64799C6.29512 2.0605 6.93239 1.42056 7.51701 0.733994C7.58689 0.643568 7.65134 0.549068 7.71001 0.450994C7.86101 0.208994 7.99201 -6.3575e-06 8.27601 -6.3575e-06C8.33507 -0.00361256 8.39421 0.00570308 8.4493 0.0272914C8.5044 0.0488798 8.55412 0.0822216 8.59501 0.124994C8.77201 0.324994 8.72801 0.714994 8.70201 0.949994C8.70201 0.973994 8.69701 0.995994 8.69501 1.01599C8.52238 1.61029 8.31331 2.19339 8.06901 2.76199C8.02758 2.91678 7.99849 3.07461 7.98201 3.23399C9.60728 3.35664 11.129 4.07868 12.252 5.25999C13.3727 6.43024 13.9988 7.98767 14 9.60799C13.9786 11.3216 13.2786 12.9569 12.0533 14.1551C10.8281 15.3533 9.17769 16.0168 7.46401 16ZM2.84301 7.25599C2.84301 7.25599 2.87801 7.25599 2.94301 7.25599C3.44771 7.27739 3.94368 7.11938 4.34301 6.80999C4.50312 6.62469 4.62231 6.40768 4.69279 6.17315C4.76327 5.93862 4.78345 5.69186 4.75201 5.44899C4.37966 5.69402 4.02235 5.96116 3.68201 6.24899C3.38505 6.56468 3.10818 6.89867 2.85301 7.24899L2.84301 7.25599Z" fill="#F1F1F1"/>
</svg>
