<svg width="10" height="15" viewBox="0 0 10 15" fill="none" xmlns="http://www.w3.org/2000/svg">
<path d="M1.963 0.584C1.94004 0.517692 1.93327 0.446853 1.94325 0.377395C1.95323 0.307937 1.97969 0.241874 2.0204 0.18472C2.06111 0.127566 2.1149 0.0809776 2.17729 0.048844C2.23967 0.0167104 2.30883 -3.67566e-05 2.379 6.0573e-08H7.086C7.17993 7.62778e-05 7.27137 0.0302081 7.34694 0.0859873C7.42251 0.141767 7.47825 0.220266 7.506 0.31L9.824 7.8C9.84435 7.8658 9.84897 7.93546 9.83749 8.00338C9.826 8.07129 9.79873 8.13556 9.75787 8.19101C9.71701 8.24646 9.66371 8.29154 9.60225 8.32263C9.54078 8.35372 9.47288 8.36994 9.404 8.37H6.522C6.48796 8.36995 6.45437 8.3778 6.42388 8.39293C6.39338 8.40806 6.36682 8.43006 6.34627 8.4572C6.32572 8.48434 6.31175 8.51588 6.30546 8.54933C6.29916 8.58279 6.30072 8.61725 6.31 8.65L7.753 13.73C7.78126 13.8289 7.774 13.9345 7.73248 14.0286C7.69096 14.1227 7.6178 14.1992 7.5257 14.245C7.43361 14.2907 7.3284 14.3028 7.22835 14.279C7.1283 14.2553 7.03972 14.1973 6.978 14.115L0.530004 5.534C0.482115 5.46862 0.453212 5.39129 0.446482 5.31053C0.439752 5.22977 0.455456 5.14872 0.491864 5.07632C0.528272 5.00392 0.583968 4.94298 0.65281 4.90022C0.721652 4.85746 0.800966 4.83454 0.882004 4.834H3.124C3.15909 4.83402 3.19367 4.82564 3.22486 4.80958C3.25605 4.79351 3.28295 4.77022 3.30331 4.74164C3.32366 4.71306 3.33689 4.68003 3.34188 4.6453C3.34687 4.61057 3.34349 4.57515 3.332 4.542L1.963 0.584Z" fill="#F1F1F1"/>
</svg>
