<svg width="15" height="15" viewBox="0 0 15 15" fill="none" xmlns="http://www.w3.org/2000/svg">
<path d="M7.5 15C7.4564 15.0003 7.41353 14.9888 7.37601 14.9666C7.33848 14.9444 7.30771 14.9124 7.287 14.874L5.345 11.322L3.27 11.922C3.22248 11.9359 3.17183 11.9348 3.12495 11.9189C3.07808 11.9029 3.03724 11.873 3.008 11.833C2.98528 11.8028 2.96999 11.7677 2.96339 11.7306C2.95678 11.6934 2.95905 11.6552 2.97 11.619L3.57 9.59301L0.126 7.71301C0.0878366 7.69205 0.0560042 7.66123 0.0338319 7.62376C0.0116596 7.58629 -3.8147e-05 7.54355 -3.8147e-05 7.50001C-3.8147e-05 7.45647 0.0116596 7.41373 0.0338319 7.37626C0.0560042 7.33879 0.0878366 7.30796 0.126 7.28701L3.6 5.38701L2.97 3.25401C2.959 3.21809 2.95661 3.18009 2.96304 3.14309C2.96947 3.10608 2.98453 3.07111 3.007 3.04101C3.03628 3.00112 3.07716 2.97126 3.12406 2.95551C3.17096 2.93976 3.22158 2.93888 3.269 2.95301L5.4 3.57101L7.287 0.126008C7.30796 0.0878442 7.33878 0.0560119 7.37625 0.0338396C7.41372 0.0116672 7.45646 -3.05176e-05 7.5 -3.05176e-05C7.54354 -3.05176e-05 7.58628 0.0116672 7.62375 0.0338396C7.66122 0.0560119 7.69204 0.0878442 7.713 0.126008L9.6 3.57101L11.733 2.95301C11.7554 2.94643 11.7786 2.94306 11.802 2.94301C11.8397 2.94355 11.8768 2.95287 11.9103 2.97022C11.9438 2.98758 11.9728 3.0125 11.995 3.04301C12.0177 3.07317 12.033 3.10827 12.0396 3.14546C12.0462 3.18264 12.044 3.22086 12.033 3.25701L11.4 5.38701L14.874 7.28701C14.9122 7.30796 14.944 7.33879 14.9662 7.37626C14.9883 7.41373 15 7.45647 15 7.50001C15 7.54355 14.9883 7.58629 14.9662 7.62376C14.944 7.66123 14.9122 7.69205 14.874 7.71301L11.431 9.60001L12.031 11.626C12.0419 11.6622 12.0441 11.7004 12.0375 11.7375C12.0309 11.7747 12.0157 11.8098 11.993 11.84C11.9706 11.8706 11.9415 11.8956 11.9078 11.9129C11.8741 11.9303 11.8369 11.9395 11.799 11.94C11.7756 11.9399 11.7524 11.9366 11.73 11.93L9.655 11.33L7.713 14.88C7.69159 14.9173 7.6605 14.9482 7.62301 14.9693C7.58552 14.9904 7.54302 15.001 7.5 15ZM7.52 5.03901C7.4764 5.03868 7.43353 5.05024 7.39601 5.07244C7.35848 5.09464 7.32771 5.12664 7.307 5.16501L6.55 6.55001L5.165 7.30701C5.12684 7.32796 5.095 7.35879 5.07283 7.39626C5.05066 7.43373 5.03896 7.47647 5.03896 7.52001C5.03896 7.56355 5.05066 7.60629 5.07283 7.64376C5.095 7.68123 5.12684 7.71205 5.165 7.73301L6.55 8.49101L7.307 9.87601C7.32806 9.91393 7.35896 9.94547 7.39645 9.9673C7.43394 9.98912 7.47662 10.0004 7.52 10C7.56348 10.0004 7.60622 9.98882 7.64359 9.96661C7.68097 9.9444 7.71154 9.91237 7.732 9.87401L8.49 8.48901L9.875 7.73101C9.91316 7.71005 9.945 7.67923 9.96717 7.64176C9.98934 7.60429 10.001 7.56155 10.001 7.51801C10.001 7.47447 9.98934 7.43173 9.96717 7.39426C9.945 7.35679 9.91316 7.32596 9.875 7.30501L8.491 6.55001L7.733 5.16501C7.71238 5.12657 7.68163 5.0945 7.64408 5.07229C7.60653 5.05008 7.56362 5.03857 7.52 5.03901Z" fill="#F1F1F1"/>
</svg>
