<svg width="14" height="15" viewBox="0 0 14 15" fill="none" xmlns="http://www.w3.org/2000/svg">
<path d="M7 15C3.14 15 0 12.14 0 8.624C0.0053189 7.80075 0.178408 6.98723 0.508696 6.23312C0.838984 5.47901 1.31954 4.80015 1.921 4.238C1.87567 5.35221 1.92149 6.46826 2.058 7.575C2.06139 7.57862 2.06605 7.58077 2.071 7.581C2.421 7.502 2.146 2.291 2.087 1.248C2.16619 0.935939 2.33468 0.653749 2.57183 0.436003C2.80898 0.218256 3.1045 0.0744086 3.42217 0.0220821C3.73985 -0.0302443 4.06588 0.0112226 4.36035 0.141403C4.65481 0.271583 4.9049 0.484824 5.08 0.755002C5.129 0.755002 5.174 0.750002 5.219 0.750002C5.32439 0.749939 5.42953 0.759985 5.533 0.780002C5.72035 0.578134 5.95512 0.426213 6.21603 0.338009C6.47693 0.249805 6.75573 0.228107 7.02714 0.274881C7.29855 0.321656 7.554 0.435424 7.77033 0.605874C7.98665 0.776323 8.15703 0.998066 8.266 1.251H8.273C8.38827 1.25107 8.50323 1.26313 8.616 1.287C8.88956 1.09968 9.21345 0.999624 9.545 1C9.88444 1.00076 10.2155 1.10556 10.4935 1.30028C10.7716 1.495 10.9832 1.77027 11.1 2.089C11.2275 2.13246 11.3491 2.19158 11.462 2.265C11.7244 2.09296 12.0312 2.0009 12.345 2C12.7822 2.0057 13.1998 2.1819 13.509 2.49104C13.8181 2.80019 13.9943 3.21784 14 3.655V8.681C13.9864 9.52944 13.795 10.3656 13.4383 11.1355C13.0816 11.9054 12.5674 12.592 11.929 13.151C10.5721 14.3573 8.81544 15.0162 7 15Z" fill="#F1F1F1"/>
</svg>
