<svg width="12" height="15" viewBox="0 0 12 15" fill="none" xmlns="http://www.w3.org/2000/svg">
<path d="M5.29999 14.814C4.61118 14.8188 3.92895 14.6798 3.29686 14.406C2.66477 14.1323 2.09673 13.7297 1.62899 13.224C1.06037 12.6344 0.635572 11.9215 0.387706 11.1407C0.13984 10.36 0.0756006 9.53262 0.199995 8.723C0.303493 7.92343 0.537964 7.14637 0.893995 6.423C0.83403 6.67773 0.802504 6.93832 0.799995 7.2C0.805487 7.46032 0.883777 7.71389 1.02599 7.932C1.0282 7.92358 1.03157 7.9155 1.03599 7.908C1.35922 7.20917 1.75757 6.5476 2.22399 5.935C2.72484 5.421 3.27896 4.96174 3.877 4.565C4.23591 4.33199 4.57088 4.06402 4.87699 3.765C6.05299 2.448 5.34099 0.024 5.33299 0C5.33299 0 5.33299 0 5.34099 0.006C6.14169 0.743664 6.73303 1.68 7.05499 2.72C7.1573 3.33141 7.1468 3.95638 7.02399 4.564C6.93399 5.214 6.85599 5.774 7.10599 6.064C7.1786 6.13599 7.26609 6.19121 7.36232 6.22576C7.45855 6.26031 7.56118 6.27337 7.66299 6.264H7.74999C7.87961 6.26901 8.0082 6.2393 8.12248 6.17794C8.23676 6.11658 8.33257 6.0258 8.39999 5.915C8.77199 5.239 7.95999 3.782 7.95099 3.767C7.95533 3.76825 7.95939 3.77029 7.96299 3.773C8.59684 4.13727 9.17846 4.58568 9.692 5.106C10.2059 5.5881 10.6096 6.17555 10.8754 6.82814C11.1412 7.48072 11.2628 8.18303 11.232 8.887C11.1738 9.54652 10.9591 10.1826 10.6057 10.7425C10.2523 11.3024 9.77036 11.7698 9.2 12.106C8.63366 12.4625 8.01328 12.7249 7.36299 12.883C7.84336 12.495 8.22738 12.0012 8.48499 11.44C8.55457 10.7553 8.49659 10.0636 8.314 9.4C8.31439 9.40533 8.31439 9.41067 8.314 9.416C8.20138 9.96156 7.97737 10.478 7.65599 10.933C7.29762 11.3157 6.81034 11.5522 6.28799 11.597C6.53754 11.4788 6.74841 11.2922 6.89605 11.0589C7.04369 10.8256 7.12205 10.5551 7.12199 10.279C7.11192 9.88959 6.95015 9.51951 6.67116 9.24765C6.39217 8.97579 6.01804 8.82365 5.62849 8.82365C5.23895 8.82365 4.86482 8.97579 4.58583 9.24765C4.30684 9.51951 4.14507 9.88959 4.135 10.279C4.13461 10.4939 4.18246 10.7061 4.27499 10.9C3.9552 10.6247 3.74274 10.2455 3.67499 9.829C3.66999 9.852 3.12399 12.239 4.68699 13.346C5.32707 13.7431 6.07394 13.9334 6.82599 13.891C7.69148 13.8736 8.55089 13.7421 9.382 13.5C9.382 13.5 9.382 13.5 9.375 13.507C8.16121 14.306 6.75208 14.758 5.29999 14.814Z" fill="#F1F1F1"/>
</svg>
