<svg width="15" height="14" viewBox="0 0 15 14" fill="none" xmlns="http://www.w3.org/2000/svg">
<path d="M5.236 13C6.24288 13.0241 7.23553 12.7587 8.0961 12.2355C8.95667 11.7122 9.64904 10.953 10.091 10.048C10.1 10.027 6.973 10.861 7.073 10.566C7.118 10.434 9.035 9.734 10.431 8.917C10.9591 8.55769 11.3665 8.04747 11.6 7.453C10.9425 7.77697 10.262 8.05205 9.564 8.276C8.71962 8.49989 7.84522 8.58932 6.973 8.541C8.6606 8.018 10.2782 7.29131 11.79 6.377C12.59 5.87126 13.1835 5.09692 13.464 4.193C12.7224 4.63839 11.9455 5.02202 11.141 5.34C9.86631 5.80475 8.52758 6.0702 7.172 6.127C7.172 5.927 8.839 5.473 10.606 4.617C11.5284 4.13104 12.4099 3.57121 13.242 2.943C14.179 2.21952 14.8071 1.16797 15 0C14.2855 0.465521 13.5465 0.892141 12.786 1.278C10.4001 2.39361 7.85134 3.12078 5.236 3.432C2.356 3.658 0 5.668 0 8.276C0.071378 9.59551 0.6622 10.8331 1.64334 11.7183C2.62447 12.6035 3.91613 13.0643 5.236 13Z" fill="#F1F1F1"/>
</svg>
