<svg width="14" height="15" viewBox="0 0 14 15" fill="none" xmlns="http://www.w3.org/2000/svg">
<path d="M6.88901 13.952C5.05308 13.7316 3.33911 12.9185 2.00701 11.636C1.36823 11.0156 0.861231 10.2726 0.516371 9.45163C0.171511 8.63063 -0.00411518 7.74848 9.98296e-06 6.85801C0.0211184 5.02105 0.769915 3.26744 2.08217 1.98181C3.39442 0.696175 5.163 -0.0165311 7.00001 6.85928e-06C8.83702 -0.0165311 10.6056 0.696175 11.9178 1.98181C13.2301 3.26744 13.9789 5.02105 14 6.85801C13.9988 8.55629 13.3588 10.192 12.207 11.44C12.1714 11.472 12.1438 11.512 12.1264 11.5566C12.109 11.6012 12.1024 11.6493 12.107 11.697C12.139 11.897 12.446 12.071 12.742 12.236C13.038 12.401 13.351 12.576 13.398 12.786C13.4059 12.8297 13.404 12.8747 13.3924 12.9175C13.3808 12.9604 13.3598 13.0002 13.331 13.034C12.3634 13.652 11.235 13.9709 10.087 13.951C9.47701 13.983 8.80701 14 8.20001 14C7.76246 14.0077 7.32482 13.9916 6.88901 13.952ZM8.86001 7.07201C9.14699 7.07441 9.42322 6.9629 9.62811 6.76195C9.833 6.56099 9.94984 6.28698 9.95301 6.00001C9.95215 5.81063 9.90094 5.62489 9.80465 5.46181C9.70835 5.29874 9.57043 5.16421 9.40501 5.07201C9.39594 5.3213 9.2905 5.55734 9.11087 5.73044C8.93125 5.90353 8.69146 6.00017 8.44201 6.00001H7.76501C7.76844 6.28725 7.88564 6.56141 8.09091 6.76236C8.29618 6.96332 8.57276 7.07467 8.86001 7.07201ZM3.82801 6.00001C3.82801 6.29015 3.94327 6.56842 4.14844 6.77358C4.3536 6.97875 4.63186 7.09401 4.92201 7.09401C5.21216 7.09401 5.49042 6.97875 5.69558 6.77358C5.90075 6.56842 6.01601 6.29015 6.01601 6.00001H5.34001C5.09046 6.00018 4.85056 5.90357 4.67078 5.7305C4.49099 5.55743 4.38533 5.32138 4.37601 5.07201C4.21059 5.16421 4.07267 5.29874 3.97637 5.46181C3.88008 5.62489 3.82887 5.81063 3.82801 6.00001Z" fill="#F1F1F1"/>
</svg>
