<svg width="13" height="14" viewBox="0 0 13 14" fill="none" xmlns="http://www.w3.org/2000/svg">
<path d="M2.32859 11.9348C1.1824 10.786 0.538688 9.22942 0.538688 7.6066C0.538688 5.98378 1.1824 4.42722 2.32859 3.2784C3.01024 2.59675 4.58639 1.6669 8.22799 1.10688C9.58845 0.901082 10.9597 0.774533 12.3349 0.727867L12.3377 0.746252C12.5 2.30374 12.573 3.86924 12.5562 5.43508C12.5208 7.71903 12.2196 10.7002 10.985 11.9348C9.97365 12.9482 8.63879 13.5746 7.21303 13.7048C5.78727 13.8351 4.36101 13.4609 3.18278 12.6476L5.10399 10.2894L8.17354 9.62398L5.66331 9.37649L7.26208 7.75227L9.07439 7.35416L7.64462 6.92707L9.07581 4.34189L7.03651 6.6315L6.24809 5.51922L6.52669 7.35346L5.10611 8.95505L4.44709 6.92707L4.44567 9.62539L2.46365 12.0699L2.44809 12.0543L2.32859 11.9348Z" fill="#F1F1F1"/>
</svg>
