<svg width="17" height="11" viewBox="0 0 17 11" fill="none" xmlns="http://www.w3.org/2000/svg">
<path d="M1.2 11C1.16732 11.0004 1.13505 10.9928 1.10599 10.9778C1.07694 10.9628 1.052 10.941 1.03335 10.9141C1.0147 10.8873 1.00291 10.8563 0.999014 10.8239C0.99512 10.7914 0.999236 10.7585 1.011 10.728L3.748 3.417C3.76231 3.37872 3.78799 3.34574 3.8216 3.3225C3.85522 3.29926 3.89514 3.28687 3.936 3.287H6.029C6.06144 3.28673 6.09345 3.29436 6.12229 3.30922C6.15112 3.32408 6.1759 3.34573 6.1945 3.3723C6.2131 3.39888 6.22496 3.42957 6.22906 3.46175C6.23315 3.49393 6.22936 3.52662 6.218 3.557L3.57 10.868C3.55597 10.9068 3.53027 10.9403 3.49644 10.964C3.4626 10.9876 3.42228 11.0002 3.381 11H1.2ZM4.371 10.958H4.306C4.29277 10.9556 4.28103 10.948 4.27335 10.9369C4.26567 10.9259 4.26267 10.9123 4.265 10.899L8.074 0.134002C8.0877 0.0948131 8.11326 0.0608587 8.14713 0.0368477C8.18099 0.0128368 8.22149 -4.04631e-05 8.263 1.83529e-06H12.122C12.1638 -0.000177216 12.2046 0.0127491 12.2387 0.0369639C12.2728 0.0611787 12.2984 0.0954644 12.312 0.135002L15.992 10.69C16.0028 10.7203 16.0061 10.7528 16.0017 10.7846C15.9972 10.8165 15.9852 10.8468 15.9665 10.873C15.9479 10.8992 15.9232 10.9205 15.8945 10.9351C15.8659 10.9497 15.8342 10.9573 15.802 10.957H4.369L4.371 10.958Z" fill="#F1F1F1"/>
</svg>
