<svg width="17" height="17" viewBox="0 0 17 17" fill="none" xmlns="http://www.w3.org/2000/svg">
<path d="M12.6515 1.33559L12.7 5.91463L8.70976 7.83358L8.66259 3.50853L12.6515 1.33559Z" fill="#F1F1F1"/>
<path d="M16.6545 8.55L12.7008 10.8088L8.7461 8.5424L12.7 6.46761L16.6545 8.55Z" fill="#F1F1F1"/>
<path d="M8.04453 8.55L4.09078 10.8088L0.136114 8.5424L4.09 6.46761L8.04453 8.55Z" fill="#F1F1F1"/>
<path d="M4.04738 1.317L8.14958 3.3522L8.04825 7.77876L4.173 5.85761L4.04738 1.317Z" fill="#F1F1F1"/>
<path d="M12.7656 15.711L8.6634 13.6758L8.76474 9.24924L12.64 11.1704L12.7656 15.711Z" fill="#F1F1F1"/>
<path d="M4.1905 15.7534L4.14195 11.1744L8.13222 9.25542L8.17939 13.5805L4.1905 15.7534Z" fill="#F1F1F1"/>
</svg>
