<svg width="14" height="14" viewBox="0 0 14 14" fill="none" xmlns="http://www.w3.org/2000/svg">
<path d="M7 14C5.61553 14 4.26216 13.5895 3.11101 12.8203C1.95987 12.0511 1.06266 10.9579 0.532846 9.67879C0.00303304 8.3997 -0.13559 6.99224 0.134506 5.63437C0.404603 4.2765 1.07129 3.02922 2.05026 2.05026C3.02922 1.07129 4.2765 0.404603 5.63437 0.134506C6.99224 -0.13559 8.3997 0.00303304 9.67879 0.532846C10.9579 1.06266 12.0511 1.95987 12.8203 3.11101C13.5895 4.26216 14 5.61553 14 7C13.9979 8.85587 13.2597 10.6351 11.9474 11.9474C10.6351 13.2597 8.85587 13.9979 7 14ZM7 3C6.20888 3 5.43552 3.2346 4.77772 3.67412C4.11993 4.11365 3.60724 4.73837 3.30449 5.46927C3.00173 6.20017 2.92252 7.00444 3.07686 7.78036C3.2312 8.55629 3.61217 9.26902 4.17158 9.82843C4.73099 10.3878 5.44372 10.7688 6.21964 10.9231C6.99557 11.0775 7.79983 10.9983 8.53074 10.6955C9.26164 10.3928 9.88636 9.88008 10.3259 9.22228C10.7654 8.56449 11 7.79113 11 7C10.9987 5.93954 10.5768 4.9229 9.82697 4.17304C9.07711 3.42318 8.06046 3.00133 7 3Z" fill="#F1F1F1"/>
</svg>
