<svg width="15" height="15" viewBox="0 0 15 15" fill="none" xmlns="http://www.w3.org/2000/svg">
<path d="M10.658 15C10.3235 14.9829 9.99989 14.8753 9.72166 14.6888C9.44343 14.5023 9.22098 14.2439 9.078 13.941C8.93536 14.2437 8.71326 14.5021 8.43537 14.6886C8.15749 14.8751 7.83422 14.9827 7.5 15C7.12913 14.9756 6.77327 14.8443 6.47547 14.622C6.17767 14.3996 5.95069 14.0957 5.822 13.747C5.69327 14.0955 5.46641 14.3992 5.16883 14.6215C4.87124 14.8439 4.51566 14.9753 4.145 15C3.057 15 2.171 13.812 2.171 12.352C2.17038 12.0277 2.21515 11.7049 2.304 11.393C1.59208 10.8163 1.01639 10.0893 0.618092 9.26423C0.219795 8.43911 0.00873376 7.53618 0 6.62C0 2.97 3.364 0 7.5 0C11.636 0 15 2.97 15 6.62C14.9851 7.57108 14.7555 8.50651 14.3283 9.35639C13.9011 10.2063 13.2874 10.9486 12.533 11.528C12.5994 11.798 12.633 12.075 12.633 12.353C12.632 13.813 11.746 15 10.658 15ZM7.4 3.39C4.953 3.39 2.96 4.9 2.96 6.751C2.96 8.602 4.953 10.111 7.4 10.111C9.847 10.111 11.842 8.6 11.842 6.751C11.842 4.902 9.85 3.39 7.4 3.39Z" fill="#F1F1F1"/>
</svg>
