<svg width="13" height="14" viewBox="0 0 13 14" fill="none" xmlns="http://www.w3.org/2000/svg">
<path d="M11.975 11.626C11.975 11.626 10.21 13.042 6.697 12.456C4.031 12.012 2.61 9.074 2.61 7.494C2.61 3.75 5.381 2.894 7.255 2.894C8.085 2.94429 8.86542 3.30606 9.44017 3.90696C10.0149 4.50786 10.3417 5.30359 10.355 6.135C10.3699 6.47979 10.3146 6.82401 10.1923 7.14674C10.07 7.46947 9.8834 7.76396 9.64376 8.0123C9.40411 8.26064 9.11646 8.45765 8.7983 8.59134C8.48013 8.72504 8.1381 8.79263 7.793 8.79C7.51535 8.81156 7.23637 8.77134 6.97613 8.67222C6.71588 8.5731 6.48083 8.41755 6.28787 8.21675C6.09491 8.01596 5.94884 7.7749 5.86016 7.51091C5.77148 7.24692 5.7424 6.96657 5.775 6.69C5.77585 6.49478 5.8183 6.30199 5.8995 6.12447C5.98071 5.94694 6.09881 5.78876 6.24594 5.66046C6.39308 5.53215 6.56586 5.43668 6.75278 5.38039C6.93971 5.32409 7.13648 5.30828 7.33 5.334C8.071 5.334 8.33 5.967 8.33 6.511C8.33358 6.61203 8.31573 6.71267 8.27762 6.8063C8.23952 6.89994 8.18201 6.98444 8.10889 7.05425C8.03578 7.12406 7.9487 7.1776 7.85341 7.21134C7.75811 7.24507 7.65675 7.25825 7.556 7.25C7.204 7.25 7.169 7.072 7.034 6.886C6.899 6.7 7.2 5.992 6.7 5.992C6.2 5.992 6.1 6.804 6.1 6.804C6.14276 7.22556 6.34017 7.61634 6.65411 7.90092C6.96805 8.1855 7.37627 8.3437 7.8 8.345C8.09964 8.36256 8.39928 8.31068 8.67558 8.1934C8.95187 8.07612 9.19734 7.89661 9.39285 7.66887C9.58837 7.44113 9.72864 7.1713 9.80273 6.88044C9.87682 6.58957 9.88273 6.28552 9.82 5.992C9.66551 5.27109 9.23119 4.64099 8.61243 4.24011C7.99367 3.83923 7.24108 3.70035 6.52 3.854C4.541 4.1 3.736 6.094 4.091 8.222C4.446 10.35 6.995 11.583 9 11.139C11.005 10.695 13 9.244 13 5.565C13 1.886 9.814 -0.325001 6.014 0.0389987C2.214 0.402999 -0.144002 3.725 0.00699771 7.717C0.157998 11.709 3.945 13.882 7.148 13.994C9.02653 14.0747 10.8679 13.4538 12.314 12.252C12.314 12.252 12.756 11.858 12.582 11.552C12.408 11.246 11.975 11.626 11.975 11.626Z" fill="#F1F1F1"/>
</svg>
