<svg width="14" height="11" viewBox="0 0 14 11" fill="none" xmlns="http://www.w3.org/2000/svg">
<path d="M7.575 10.971L4.327 9.907L9.994 6.03C10.0139 6.0164 10.0364 6.00687 10.06 6.00196C10.0836 5.99706 10.108 5.99688 10.1317 6.00144C10.1554 6.00599 10.178 6.01519 10.1981 6.0285C10.2182 6.04181 10.2355 6.05898 10.249 6.079L11.54 8C11.5666 8.03932 11.5767 8.08745 11.5683 8.13415C11.5599 8.18085 11.5336 8.22242 11.495 8.25L7.739 10.946C7.70809 10.9681 7.67102 10.98 7.633 10.98C7.61332 10.9801 7.59374 10.977 7.575 10.971ZM2.975 9.626L0.126002 8.695C0.0892555 8.68312 0.0572415 8.65985 0.0345905 8.62857C0.0119396 8.59729 -0.000174013 8.55962 1.88893e-06 8.521V5.6C-7.89192e-05 5.55729 0.0147788 5.5159 0.0420019 5.483L4.511 0.0910006C4.5281 0.0704389 4.54949 0.0538738 4.57368 0.042471C4.59787 0.0310682 4.62426 0.0251049 4.651 0.0250006H10.4C10.4263 0.0250002 10.4523 0.0306749 10.4762 0.0416376C10.5002 0.0526003 10.5214 0.0685933 10.5386 0.0885257C10.5558 0.108458 10.5685 0.131861 10.5758 0.157139C10.5831 0.182416 10.5849 0.208974 10.581 0.235001L9.891 4.863C9.88758 4.88766 9.87906 4.91134 9.86597 4.93252C9.85289 4.95369 9.83553 4.97191 9.815 4.986L3.132 9.6C3.10265 9.62062 3.06786 9.6321 3.032 9.633C3.01175 9.6341 2.99146 9.63174 2.972 9.626H2.975ZM12.4 7.374L10.854 5.266C10.8394 5.24608 10.8289 5.22341 10.8233 5.19936C10.8176 5.17531 10.8168 5.15036 10.821 5.126L11.674 0.152001C11.6813 0.109525 11.7034 0.070989 11.7363 0.0431828C11.7692 0.0153765 11.8109 8.42481e-05 11.854 5.7956e-07C11.893 -9.75503e-05 11.931 0.0122681 11.9625 0.0352938C11.994 0.0583196 12.0173 0.090801 12.029 0.128001L13.96 6.243C13.9715 6.27866 13.9717 6.31701 13.9606 6.35281C13.9495 6.38861 13.9277 6.4201 13.898 6.443L12.66 7.411C12.6408 7.42618 12.6186 7.43732 12.595 7.44374C12.5713 7.45016 12.5466 7.45174 12.5223 7.44838C12.4981 7.44501 12.4747 7.43678 12.4537 7.42417C12.4327 7.41156 12.4144 7.39484 12.4 7.375V7.374Z" fill="#F1F1F1"/>
</svg>
