<svg width="21" height="22" viewBox="0 0 21 22" fill="none" xmlns="http://www.w3.org/2000/svg">
<g clip-path="url(#clip0)">
<path d="M7.66985 21.9924C7.63348 21.9251 7.58779 21.8611 7.56168 21.7896C7.34114 21.1816 7.16816 20.5508 6.8968 19.9677C6.44733 19.0004 5.77407 18.2164 4.81359 17.7407C4.18834 17.431 3.54585 17.1585 2.91641 16.8574C2.83388 16.8178 2.73224 16.7057 2.73457 16.6298C2.73643 16.5611 2.85859 16.458 2.94391 16.4356C3.57382 16.2724 4.21026 16.1579 4.78934 15.8119C5.57451 15.3428 6.17877 14.7048 6.55597 13.8755C6.87815 13.1664 7.10988 12.4139 7.37984 11.68C7.41248 11.5912 7.42833 11.4953 7.4647 11.4085C7.56634 11.1685 7.76916 11.1432 7.90344 11.3627C7.9799 11.4882 8.02746 11.6347 8.07362 11.7769C8.29089 12.4463 8.45735 13.1373 8.72731 13.7829C9.15579 14.807 9.88361 15.5638 10.9136 15.9722C11.447 16.1836 11.9957 16.354 12.5343 16.5515C12.6098 16.5792 12.7282 16.6661 12.7217 16.7085C12.7096 16.7897 12.6359 16.897 12.5618 16.9266C12.296 17.034 12.019 17.1122 11.7472 17.2038C10.1424 17.7469 9.01312 18.8201 8.36316 20.4138C8.19951 20.8152 8.08528 21.2375 7.93887 21.6469C7.89458 21.7705 7.81905 21.8826 7.75797 22C7.72906 21.9976 7.69922 21.9952 7.66985 21.9924Z" fill="#0B4571"/>
<path d="M21 11.0453C20.8741 11.1446 20.8084 11.2257 20.7244 11.2572C20.4484 11.3608 20.1654 11.4438 19.8866 11.5392C18.3601 12.0608 17.2625 13.0758 16.6079 14.5755C16.4097 15.0298 16.2792 15.5151 16.1165 15.9856C16.096 16.0453 16.0796 16.1125 16.0414 16.1579C15.9948 16.2127 15.923 16.2858 15.8684 16.28C15.8185 16.2753 15.7598 16.1832 15.736 16.1178C15.5113 15.5022 15.3392 14.8618 15.0632 14.272C14.6151 13.3143 13.9461 12.5361 12.993 12.0641C12.3608 11.7511 11.7104 11.4762 11.073 11.1723C10.9979 11.1365 10.9103 11.0258 10.9131 10.9532C10.9159 10.885 11.0194 10.7853 11.0973 10.7609C11.5994 10.6035 12.1267 10.5123 12.6079 10.3057C13.6234 9.87004 14.3517 9.09367 14.7937 8.06915C15.0935 7.37485 15.3187 6.64667 15.5765 5.93329C15.5901 5.89607 15.5873 5.84835 15.6101 5.82019C15.6875 5.7238 15.77 5.56442 15.8563 5.56061C15.9472 5.55679 16.0908 5.68467 16.1305 5.78775C16.2601 6.12655 16.3445 6.483 16.4615 6.82705C16.6317 7.32809 16.7715 7.84679 17.0019 8.31824C17.47 9.27595 18.1997 9.9712 19.1942 10.3429C19.7029 10.5328 20.2204 10.697 20.7324 10.8788C20.8093 10.9065 20.875 10.9666 21 11.0453Z" fill="#0B4571"/>
<path d="M10.1014 5.52977C9.93358 5.63427 9.83007 5.72255 9.71118 5.76788C9.47199 5.85855 9.22208 5.9201 8.97963 6.00313C7.44613 6.52803 6.34437 7.5492 5.68929 9.05901C5.49486 9.5066 5.36524 9.98378 5.20485 10.4467C5.18434 10.5063 5.16942 10.5736 5.13165 10.6199C5.08596 10.6757 5.01556 10.7511 4.961 10.7473C4.91205 10.7439 4.85097 10.6514 4.82672 10.5855C4.60805 9.98474 4.4388 9.36059 4.1735 8.78272C3.72124 7.79734 3.04004 7.00187 2.06371 6.5204C1.438 6.21166 0.795506 5.93871 0.1656 5.63809C0.0896005 5.60182 -0.0120424 5.48205 0.000546378 5.42479C0.018264 5.34414 0.121306 5.25062 0.20663 5.22342C0.700857 5.06642 1.21933 4.97385 1.69397 4.772C2.70388 4.34206 3.4289 3.5738 3.87091 2.55931C4.17583 1.85881 4.40337 1.12299 4.66447 0.402924C4.69384 0.321326 4.70596 0.231615 4.74513 0.155743C4.84304 -0.0351294 5.03933 -0.055171 5.15123 0.127113C5.24029 0.272653 5.29904 0.440144 5.35312 0.604772C5.56946 1.26615 5.73218 1.94995 6.00121 2.58794C6.45441 3.66255 7.23771 4.42175 8.32408 4.82402C8.82577 5.00964 9.33631 5.16997 9.8408 5.34844C9.91074 5.37277 9.96855 5.43576 10.1014 5.52977Z" fill="#0B4571"/>
</g>
<defs>
<clipPath id="clip0">
<rect width="21" height="22" fill="white"/>
</clipPath>
</defs>
</svg>
