<svg width="15" height="13" viewBox="0 0 15 13" fill="none" xmlns="http://www.w3.org/2000/svg">
<path d="M11.077 13H3.96101C3.89612 12.9999 3.83238 12.9829 3.77609 12.9506C3.71979 12.9183 3.67289 12.8719 3.64001 12.816L0.0510084 6.692C0.0175102 6.63501 -0.000152588 6.57011 -0.000152588 6.504C-0.000152588 6.43789 0.0175102 6.37299 0.0510084 6.316L3.64001 0.185C3.67276 0.128873 3.71961 0.0822766 3.77591 0.0498273C3.83222 0.017378 3.89602 0.000201815 3.96101 9.18057e-08H11.077C11.1424 -4.5802e-05 11.2067 0.0171159 11.2634 0.0497629C11.3201 0.08241 11.3672 0.129394 11.4 0.186L14.95 6.317C14.9827 6.37389 15 6.43837 15 6.504C15 6.56963 14.9827 6.63411 14.95 6.691L11.4 12.814C11.3672 12.8706 11.3201 12.9176 11.2634 12.9502C11.2067 12.9829 11.1424 13 11.077 13ZM7.50001 3C6.80777 3 6.13108 3.20527 5.55551 3.58986C4.97994 3.97444 4.53134 4.52107 4.26643 5.16061C4.00152 5.80015 3.93221 6.50388 4.06726 7.18282C4.20231 7.86175 4.53565 8.48539 5.02514 8.97487C5.51462 9.46436 6.13826 9.7977 6.81719 9.93275C7.49613 10.0678 8.19986 9.99849 8.8394 9.73358C9.47894 9.46867 10.0256 9.02007 10.4102 8.4445C10.7947 7.86892 11 7.19223 11 6.5C11 5.57174 10.6313 4.6815 9.97488 4.02513C9.3185 3.36875 8.42827 3 7.50001 3Z" fill="#F1F1F1"/>
</svg>
