<svg width="10" height="15" viewBox="0 0 10 15" fill="none" xmlns="http://www.w3.org/2000/svg">
<path d="M5 15C3.67703 15 2.40798 14.4757 1.47081 13.5419C0.533649 12.6081 0.00476269 11.341 0 10.018L4.549 0.518002C4.58994 0.433466 4.65387 0.362173 4.73346 0.312289C4.81304 0.262404 4.90507 0.235947 4.999 0.235947C5.09293 0.235947 5.18496 0.262404 5.26454 0.312289C5.34413 0.362173 5.40806 0.433466 5.449 0.518002L10 10.019C9.99497 11.3418 9.46597 12.6087 8.52883 13.5423C7.5917 14.4758 6.3228 15 5 15ZM2.064 10.038C2.00552 10.5313 2.03943 11.0311 2.164 11.512C2.27776 11.9874 2.52747 12.4193 2.88262 12.7551C3.23778 13.0909 3.68303 13.316 4.164 13.403C4.45953 13.4686 4.76128 13.5021 5.064 13.503C5.65281 13.4928 6.23251 13.3558 6.76365 13.1015C7.29479 12.8471 7.7649 12.4813 8.142 12.029H8.132C7.36497 12.3064 6.55752 12.4558 5.742 12.471C5.29762 12.4764 4.85518 12.4116 4.431 12.279C3.37754 11.8731 2.52689 11.0677 2.064 10.038Z" fill="#F1F1F1"/>
</svg>
